<?xml version="1.0" encoding="utf-8"?>
<!-- Generator: Adobe Illustrator 16.0.0, SVG Export Plug-In . SVG Version: 6.00 Build 0)  -->
<!DOCTYPE svg PUBLIC "-//W3C//DTD SVG 1.1//EN" "http://www.w3.org/Graphics/SVG/1.1/DTD/svg11.dtd">
<svg version="1.1" id="圖層_1" xmlns="http://www.w3.org/2000/svg" xmlns:xlink="http://www.w3.org/1999/xlink" x="0px" y="0px"
	 width="595.41px" height="514.895px" viewBox="0 0 595.41 514.895" enable-background="new 0 0 595.41 514.895"
	 xml:space="preserve">
<g>
	<path fill="#D9564A" d="M382.929,61.196c15.801,5.009,31.957,8.84,47.363,15.162c12.261,5.03,24.494,10.092,35.949,16.9
		c1.042,1.643,2.991,1.472,4.436,2.311l-0.002-0.002c0.929,1.311,2.528,1.481,3.751,2.303c16.499,9.915,32.581,20.581,46.814,33.62
		c10.529,9.646,20.5,19.971,29.436,31.421c8.31,10.649,14.769,22.409,22.337,33.466c0.83,1.24,0.99,2.89,2.25,3.874l-0.002,0.002
		c1.188,1.29,0.795,3.385,2.22,4.555c7.28,17.539,13.204,35.339,16.028,54.415c1.739,11.75,2.377,23.4,1.529,34.947
		c-1.569,21.416-5.613,42.446-14.978,62.026c-1.764,3.688-3.138,7.572-4.692,11.369c-6.372,9.59-11.73,19.84-18.505,29.183
		c-10.985,15.151-22.565,29.64-37.688,40.826c-3.848,2.845-6.853,6.858-11.213,9.109c-4.679,4.789-10.612,7.919-15.597,12.309
		c-6.765,3.264-12.769,7.857-19.291,11.535c-9.604,5.412-19.161,10.943-29.567,14.687c-22.754,10.013-46.461,17-70.605,22.229
		c-12.707,2.752-25.834,3.597-38.678,5.494c-18.882,2.793-37.662,1.926-56.403,1.443c-11.396-0.292-23.052-1.162-34.432-3.761
		c-5.295-1.21-10.854-1.542-16.292-2.396c-14.441-2.269-28.308-6.598-42.241-10.754c-21.871-6.523-42.659-15.82-62.537-27.052
		c-15.171-8.571-29.438-18.631-42.803-30.06c-7.671-6.563-15.289-13.133-22.09-20.602c-11.063-12.148-21.246-25.006-29.463-39.424
		c-1.64-2.873-3.817-5.528-5.789-8.247c-1.716-0.867-1.466-2.88-2.353-4.23c-0.525-1.719-0.765-3.569-2.125-4.914l-0.019,0.002
		c-0.61-1.606-1.136-3.251-2.053-4.72c-3.47-9.935-7.604-19.645-10.007-29.942c-5.31-22.774-7.395-45.643-3.887-69.057
		C4.017,243.976,8.5,229.5,13.245,215.015c1.174-1.71,0.854-4.047,2.276-5.651l0.019,0.032c1.134-1.333,1.447-3.069,2.178-4.602
		c1.404-1.177,1.563-2.988,2.218-4.547c1.281-1.237,1.426-3.069,2.281-4.529c7.531-13.17,16.026-25.66,25.328-37.581
		c0.67-3.599,3.5-5.456,5.895-7.666c2.708-1.709,4.686-4.246,6.947-6.458c1.212-1.187,2.406-2.395,3.566-3.636
		c1.859-1.944,3.92-3.703,5.296-6.093c6.069-6.388,13.088-11.574,20.186-16.654c1.32-0.545,2.601-1.157,3.402-2.469
		c4.11-2.578,7.346-6.393,11.7-8.622c6.423-3.475,12.19-8.155,19.067-10.787l-0.052,0.046c6.717-5.369,14.393-8.773,22.428-11.44
		c18.313-8.343,37.373-14.533,56.512-20.498c6.771-2.735,14.156-3.152,20.951-5.811c14.725,6.611,30.235,10.756,46.17,11.249
		c10.583,0.326,16.276,3.909,18.541,14.467c0.968,4.509,3.835,8.58,7.003,12.127c7.441,8.329,17.294,8.137,24.509-0.396
		c4.469-5.282,7.172-11.477,8.918-18.103c1.269-4.811,3.774-7.006,8.888-7.527c13.63-1.388,27.197-3.421,40.14-8.424
		C379.291,60.796,381.102,59.994,382.929,61.196z"/>
	<path fill="#848B51" d="M382.929,61.196c-15.423,6.157-31.522,9.162-47.947,10.397c-3.063,0.231-3.599,2.048-4.255,4.191
		c-1.935,6.31-3.832,12.591-7.857,17.988c-10.191,13.657-23.117,13.343-32.118-1.084c-2.977-4.77-5.772-9.868-6.729-15.464
		c-0.807-4.718-3.202-5.3-7.221-5.599c-18.431-1.37-36.733-3.578-53.449-12.635c-5.63-4.68-5.104-8.857,1.767-14.065
		c1.635-0.818,3.69-0.237,5.162-1.612c14.103-6.298,29.067-8.669,44.238-8.89c6.088-0.089,8.321-2.202,9.642-7.782
		c1.981-8.383,5.901-15.832,12.268-21.789C303.44-1.709,310-1.544,316.927,4.923c6.979,6.518,10.938,14.661,13.041,23.788
		c0.967,4.2,2.645,5.525,7.006,5.719c13.679,0.611,27.12,3.044,40.034,7.928c1.718,0.649,3.409,1.482,4.953,2.49
		C390.008,50.099,390.253,54.641,382.929,61.196z"/>
	<path fill="#D9564A" d="M22.056,370.962c5.754,3.529,6.844,10.453,10.461,15.554c3.087,4.354,6.327,8.722,9.446,13.05
		c8.637,11.986,18.382,23.169,29.444,32.851c24.009,21.013,50.169,38.768,79.396,51.392c16.737,7.23,34.017,12.841,51.496,18.026
		c15.977,4.738,32.282,7.419,48.574,9.793c23.979,3.497,48.356,4.156,72.437,2.257c26.897-2.125,53.663-6.632,79.584-14.808
		c13.82-4.359,27.375-9.598,41.051-14.438c0.285,0.252,0.38,0.507,0.286,0.762c-0.095,0.254-0.188,0.381-0.282,0.381
		c-17.742,7.992-36.192,13.665-54.947,18.659c-14.294,3.807-28.763,6.681-43.299,8.427c-16.445,1.978-33.046,2.903-49.714,2.999
		c-15.393,0.088-30.648-1.366-45.794-2.988c-21.768-2.329-43.209-7.29-64.199-13.979c-28.355-9.036-55.388-21.066-80.325-37.592
		c-31.573-20.921-58.677-46.555-78.173-79.896c-0.553-0.942-1.396-1.707-2.104-2.554c-1.07-1.913-2.69-3.514-3.146-5.776
		l0.021,0.025C21.5,372.462,21.51,371.74,22.056,370.962z"/>
	<path fill="#D9564A" d="M507.38,445.962c14.473-11.505,28.316-23.486,39.817-38.431c9.188-11.94,17.324-24.416,24.895-37.387
		c0.711-1.216,1.364-2.818,3.276-2.581c-5.936,13.859-14.609,25.967-23.467,37.925c-10.396,14.04-22.749,26.128-36.23,37.03
		c-1.571,1.272-3.352,2.279-5.034,3.408C509.56,446.723,508.475,446.853,507.38,445.962z"/>
	<path fill="#D9564A" d="M443.948,485.779c-0.001-0.381-0.002-0.763-0.004-1.143c15.24-7.387,30.111-15.471,44.265-24.861
		c1.528-1.016,3.015-1.203,4.593-1.57c0.341,0.231,0.468,0.481,0.381,0.749c-0.091,0.274-0.188,0.413-0.293,0.413
		c-13.934,9.458-28.61,17.543-43.726,24.835C447.479,485.013,445.873,485.897,443.948,485.779z"/>
	<path fill="#D9564A" d="M492.889,459.367c-0.028-0.386-0.059-0.772-0.088-1.16c3.78-5.424,10.153-7.623,14.579-12.244
		c1.086-0.011,2.172-0.021,3.258-0.033C505.204,451.076,499.2,455.433,492.889,459.367z"/>
	<path fill="#9FA374" d="M225.875,45.57c0.81-0.713,1.62-1.426,2.431-2.139c0.659-0.04,1.316-0.08,1.973-0.12
		C229.394,45.25,227.831,45.811,225.875,45.57z"/>
	<path fill="#333333" d="M308.794,188.896c-15.282-0.389-30.372-2.902-45.053-7.869c-1.75-0.591-3.517-1.235-5.131-2.128
		c-5.463-3.02-7.562-8.97-5.228-14.457c2.373-5.575,7.959-8.417,13.682-6.426c12.699,4.416,25.718,7.154,39.088,7.714
		c12.719,0.533,24.995-1.772,36.781-6.971c9.242-4.078,17.693,2.076,16.474,11.705c-0.609,4.8-3.617,7.597-7.806,9.488
		C338.012,186.089,323.76,188.795,308.794,188.896z"/>
	<path fill="#333333" d="M231.368,104.552c9.34,0.015,16.67,7.422,16.617,16.796c-0.051,9.17-7.805,17.056-16.708,16.992
		c-9.013-0.064-16.571-7.858-16.566-17.082C214.714,111.857,222.013,104.539,231.368,104.552z"/>
	<path fill="#333333" d="M395.242,121.603c-0.1,9.725-7.276,16.847-16.727,16.594c-9.133-0.245-15.979-7.475-15.969-16.861
		c0.013-9.792,6.951-16.841,16.521-16.784C388.605,104.608,395.342,111.71,395.242,121.603z"/>
	<path fill="#D9564A" d="M54.195,151.11c1.508-3.324,4.214-5.518,6.935-7.699c0.314,0.266,0.43,0.542,0.345,0.83
		c-0.087,0.293-0.18,0.44-0.28,0.44C59.073,147.065,57.377,149.933,54.195,151.11z"/>
	<path fill="#D9564A" d="M63.399,141.107c1.506-1.792,3.012-3.586,4.519-5.376c0.663-0.158,1.325-0.317,1.986-0.479
		c-1.056,2.639-3.231,4.226-5.313,5.902C64.177,141.578,63.78,141.542,63.399,141.107z"/>
	<path fill="#D9564A" d="M89.926,118.218c0.777-1.315,1.886-2.103,3.407-2.234C93.272,118.443,91.64,118.396,89.926,118.218z"/>
	<path fill="#D9564A" d="M63.399,141.107c0.396,0.016,0.793,0.031,1.19,0.046c-1.131,1.175-2.264,2.351-3.396,3.526
		c-0.021-0.421-0.043-0.846-0.063-1.269C61.885,142.644,62.642,141.875,63.399,141.107z"/>
</g>
</svg>
